# xmcd CD Database Entry
#
# Track frame offsets:
# 150
# 21832
# 32152
# 50627
# 72735
# 92417
# 98302
# 113367
# 134890
# 151857
# 166205
# 175612
# 197265
# 214077
# 233875
# 254780
# 277540
# 289810
# 304845
#
# Disc length: 4290 seconds
#
# Revision: 6
# Processed by: cddbd v1.4PL0 Copyright (c) Steve Scherf et al.
# Submitted via: tcd 2.0b
#
DISCID=0010c013
DTITLE=Long Vacation - Original sound-track - Long Vacation - Origin
DTITLE=al sound-tra
DYEAR=1900
DGENRE=Rock
TTITLE0=La La La Love Song
TTITLE1=Close to You
TTITLE2=Slient Emotion - CALIN
TTITLE3=Little by Little - Section-S
TTITLE4=Long Vacation - Anna McMurphy
TTITLE5=Tiny Tale
TTITLE6=Sobani Iteyo - AMI
TTITLE7=Short Wave Radio
TTITLE8=Noisy Life - Section-S
TTITLE9=Back-Ground
TTITLE10=To Live and Die - David
TTITLE11=Deeper and Deeper - Anna McMurphy
TTITLE12=What will I do - Natalie Burks
TTITLE13=La La La Love Song (Piano Version)
TTITLE14=ON AND ON - Section-S
TTITLE15=Pacific Shore Hotel - Section-S
TTITLE16=Missing Each Other
TTITLE17=Close to Me - Natalie Burks
TTITLE18=Minami-Piano Piece of Sena
EXTD=ID3G:  17
EXTT0=
EXTT1=
EXTT2=
EXTT3=
EXTT4=
EXTT5=
EXTT6=
EXTT7=
EXTT8=
EXTT9=
EXTT10=
EXTT11=
EXTT12=
EXTT13=
EXTT14=
EXTT15=
EXTT16=
EXTT17=
EXTT18=
PLAYORDER=
